# Blender v2.91.2 OBJ File: ''
# www.blender.org
mtllib BushMed2.mtl
o BushMed2_bushbig.008
v 0.767735 -0.212813 0.309500
v -0.734095 -0.183818 -0.165136
v 0.741601 0.942473 0.197854
v -0.720272 0.962188 -0.102610
v 0.360413 -0.087895 -0.661744
v 0.858394 0.015432 0.852439
v -0.272011 0.445256 -0.603027
v 0.191982 0.952128 0.763001
v 0.553079 -0.209979 0.006883
v -0.655314 0.013514 -0.401848
v 0.519590 0.741041 0.563365
v -0.667307 0.998882 0.248334
v 0.938323 -0.091808 0.490546
v -0.431086 -0.107615 0.658188
v 0.598020 0.137308 -0.614638
v -0.728982 0.096519 -0.262147
v 0.011432 -0.115086 -1.178569
v 0.073051 -0.271905 0.439997
v 0.026444 0.508051 -1.110665
v 0.071197 0.985812 0.434381
v -0.535349 0.009022 -0.016729
v 0.350654 -0.212719 -1.177113
v -0.307867 1.142310 -0.140115
v 0.578136 0.506028 -1.300499
v -0.479233 -0.293980 0.005061
v 0.871524 -0.029663 -0.029757
v -0.623987 0.720361 -0.429501
v 0.688510 0.880388 -0.631092
v 0.117934 -0.020684 -1.380561
v 0.770784 -0.091257 0.001841
v -0.654984 0.088314 -0.799711
v -0.028842 0.025561 0.466275
v 0.477276 -0.404440 -1.093668
v 0.877467 0.276968 0.096287
v 0.013214 0.058957 -1.258888
v 0.377261 0.971376 -0.226486
vt 1.000000 0.000000
vt 0.000000 1.000000
vt 0.000000 0.000000
vt 0.000000 0.000000
vt 1.000000 1.000000
vt 0.000000 1.000000
vt 1.000000 0.000000
vt 0.000000 1.000000
vt 0.000000 0.000000
vt 1.000000 0.000000
vt 0.000000 1.000000
vt 0.000000 0.000000
vt 1.000000 0.000000
vt 0.000000 1.000000
vt 0.000000 0.000000
vt 0.000000 0.000000
vt 1.000000 1.000000
vt 0.000000 1.000000
vt 1.000000 0.000000
vt 0.000000 1.000000
vt 0.000000 0.000000
vt 1.000000 0.000000
vt 0.000000 1.000000
vt 0.000000 0.000000
vt 1.000000 0.000000
vt 0.000000 1.000000
vt 0.000000 0.000000
vt 1.000000 1.000000
vt 1.000000 0.000000
vt 1.000000 1.000000
vt 1.000000 1.000000
vt 1.000000 1.000000
vt 1.000000 0.000000
vt 1.000000 1.000000
vt 1.000000 1.000000
vt 1.000000 1.000000
vn 0.2434 -0.0063 -0.9699
vn 0.2609 -0.0309 -0.9649
vn 0.2988 -0.0851 -0.9505
vn -0.6559 -0.6445 0.3930
vn -0.7254 -0.5940 0.3478
vn -0.5514 -0.7035 0.4483
vn 0.3399 0.5043 -0.7938
vn 0.3425 0.5012 -0.7947
vn 0.3594 0.4807 -0.7998
vn -0.0199 -0.9787 -0.2044
vn -0.0180 -0.9790 -0.2029
vn -0.0131 -0.9799 -0.1991
vn -0.9995 0.0039 0.0320
vn -0.9993 0.0116 0.0359
vn -0.9990 0.0197 0.0399
vn 0.7706 -0.1009 0.6293
vn 0.7722 -0.1165 0.6246
vn 0.7688 -0.0853 0.6338
vn 0.0101 0.4859 0.8739
vn -0.0043 0.4636 0.8860
vn -0.0520 0.3870 0.9206
vn -0.1333 -0.9910 0.0152
vn -0.1324 -0.9911 0.0135
vn -0.1312 -0.9913 0.0114
vn -0.7570 -0.3657 0.5416
vn -0.7252 -0.4364 0.5327
vn -0.6890 -0.5044 0.5205
vn 0.2017 0.0509 -0.9781
vn -0.7913 -0.5346 0.2967
vn 0.3230 0.5240 -0.7881
vn -0.0254 -0.9777 -0.2086
vn -0.9996 -0.0013 0.0294
vn 0.7741 -0.1390 0.6176
vn 0.0590 0.5586 0.8274
vn -0.1346 -0.9907 0.0175
vn -0.7792 -0.3073 0.5463
usemtl bush2
s 1
f 2/1/1 3/2/2 1/3/3
f 5/4/4 8/5/5 7/6/6
f 10/7/7 11/8/8 9/9/9
f 14/10/10 15/11/11 13/12/12
f 18/13/13 19/14/14 17/15/15
f 21/16/16 24/17/17 23/18/18
f 26/19/19 27/20/20 25/21/21
f 30/22/22 31/23/23 29/24/24
f 34/25/25 35/26/26 33/27/27
f 2/1/1 4/28/28 3/2/2
f 5/4/4 6/29/29 8/5/5
f 10/7/7 12/30/30 11/8/8
f 14/10/10 16/31/31 15/11/11
f 18/13/13 20/32/32 19/14/14
f 21/16/16 22/33/33 24/17/17
f 26/19/19 28/34/34 27/20/20
f 30/22/22 32/35/35 31/23/23
f 34/25/25 36/36/36 35/26/26
