# Blender v2.91.2 OBJ File: ''
# www.blender.org
mtllib BushSmall2.mtl
o BushSmall2_bushbig.007
v -0.000000 -0.129926 0.824294
v 0.000000 -0.129926 -0.824294
v -0.000000 0.784586 0.824294
v 0.000000 0.784586 -0.824294
v 0.598601 -0.157831 -0.162283
v -0.136325 0.077358 1.140077
v 0.258988 0.577303 -0.718924
v -0.475938 0.812492 0.583436
v 0.495953 -0.164701 -0.379616
v -0.748212 0.016104 -0.304709
v 0.631783 0.638557 0.164689
v -0.612383 0.819362 0.239596
v -0.104821 -0.024097 1.035144
v -0.652316 -0.032093 -0.327958
v 0.643623 0.094693 0.518119
v 0.096127 0.086696 -0.844983
vt 1.000000 0.000000
vt 0.000000 1.000000
vt 0.000000 0.000000
vt 0.000000 0.000000
vt 1.000000 1.000000
vt 0.000000 1.000000
vt 1.000000 0.000000
vt 0.000000 1.000000
vt 0.000000 0.000000
vt 1.000000 0.000000
vt 0.000000 1.000000
vt 0.000000 0.000000
vt 1.000000 1.000000
vt 1.000000 0.000000
vt 1.000000 1.000000
vt 1.000000 1.000000
vn 1.0000 -0.0000 0.0000
vn -0.7472 -0.5846 -0.3161
vn 0.0310 0.5571 -0.8299
vn 0.1263 -0.9910 -0.0449
usemtl bush2
s 1
f 2/1/1 3/2/1 1/3/1
f 5/4/2 8/5/2 7/6/2
f 10/7/3 11/8/3 9/9/3
f 14/10/4 15/11/4 13/12/4
f 2/1/1 4/13/1 3/2/1
f 5/4/2 6/14/2 8/5/2
f 10/7/3 12/15/3 11/8/3
f 14/10/4 16/16/4 15/11/4
