# Blender v2.91.2 OBJ File: ''
# www.blender.org
mtllib BushMed.mtl
o BushMed_bushbig.004
v -0.742775 0.261739 -0.203533
v 0.445912 -0.249596 -0.356863
v -0.445991 0.951667 -0.203533
v 0.742697 0.440332 -0.356863
v -0.267628 0.032398 0.478984
v -0.893010 0.511681 -0.737121
v 0.452975 0.379645 0.259955
v -0.172407 0.858928 -0.956150
v -0.538109 0.142608 -0.021629
v 0.497815 -0.141368 -0.088050
v -0.411997 0.806490 -0.623755
v 0.623927 0.522514 -0.690176
v -0.874021 0.412810 -0.308511
v 0.035392 0.014461 -1.086036
v -0.365848 0.300411 0.532994
v 0.543566 -0.097938 -0.244532
v 0.118714 -0.144007 0.869665
v -0.313215 0.041794 -0.662015
v 0.441025 0.605263 0.869665
v 0.009096 0.791065 -0.662015
v 0.311301 -0.048656 -0.437468
v -0.200374 -0.152126 0.956005
v 0.506250 0.722586 -0.187059
v -0.005425 0.619115 1.206414
v 0.178617 -0.203540 -0.458178
v -0.710339 0.354407 0.136493
v 0.710476 0.347571 -0.009796
v -0.178481 0.905519 0.584875
v 0.129338 -0.045826 1.109800
v -0.658475 0.285301 0.074421
v 0.620647 -0.141836 0.313574
v -0.167167 0.189292 -0.721805
v -0.377341 -0.222594 0.898742
v -0.657233 0.566296 0.023034
v 0.248045 0.078452 0.970386
v -0.031847 0.867343 0.094677
vt 1.000000 0.000000
vt 0.000000 1.000000
vt 0.000000 0.000000
vt 0.000000 0.000000
vt 1.000000 1.000000
vt 0.000000 1.000000
vt 0.000000 0.000000
vt 1.000000 1.000000
vt 0.000000 1.000000
vt 0.000000 0.000000
vt 1.000000 1.000000
vt 0.000000 1.000000
vt 1.000000 0.000000
vt 0.000000 1.000000
vt 0.000000 0.000000
vt 1.000000 0.000000
vt 0.000000 1.000000
vt 0.000000 0.000000
vt 1.000000 0.000000
vt 0.000000 1.000000
vt 0.000000 0.000000
vt 1.000000 0.000000
vt 0.000000 1.000000
vt 0.000000 0.000000
vt 0.000000 0.000000
vt 1.000000 1.000000
vt 0.000000 1.000000
vt 1.000000 1.000000
vt 1.000000 0.000000
vt 1.000000 0.000000
vt 1.000000 0.000000
vt 1.000000 1.000000
vt 1.000000 1.000000
vt 1.000000 1.000000
vt 1.000000 1.000000
vt 1.000000 0.000000
vn 0.1081 -0.0465 0.9931
vn 0.2641 -0.8433 -0.4681
vn 0.2209 0.6319 0.7429
vn -0.3411 -0.9365 0.0809
vn 0.8782 -0.3778 -0.2935
vn -0.8953 0.3252 -0.3046
vn -0.0728 0.6707 -0.7381
vn -0.3036 -0.9500 -0.0728
vn 0.3787 -0.6242 -0.6833
usemtl bushType1
s 1
f 2/1/1 3/2/1 1/3/1
f 5/4/2 8/5/2 7/6/2
f 9/7/3 12/8/3 11/9/3
f 13/10/4 16/11/4 15/12/4
f 18/13/5 19/14/5 17/15/5
f 22/16/6 23/17/6 21/18/6
f 26/19/7 27/20/7 25/21/7
f 30/22/8 31/23/8 29/24/8
f 33/25/9 36/26/9 35/27/9
f 2/1/1 4/28/1 3/2/1
f 5/4/2 6/29/2 8/5/2
f 9/7/3 10/30/3 12/8/3
f 13/10/4 14/31/4 16/11/4
f 18/13/5 20/32/5 19/14/5
f 22/16/6 24/33/6 23/17/6
f 26/19/7 28/34/7 27/20/7
f 30/22/8 32/35/8 31/23/8
f 33/25/9 34/36/9 36/26/9
