# Blender v2.91.2 OBJ File: ''
# www.blender.org
mtllib BushFlowerSmall.mtl
o BushFlowerSmall_bushbig.010
v 0.209685 -0.380621 0.712294
v 0.209685 -0.380621 -0.936294
v -0.209685 1.035282 0.712294
v -0.209685 1.035282 -0.936294
v 0.976266 -0.200566 -0.274283
v -0.057035 -0.110537 1.028077
v 0.211498 0.810947 -0.830924
v -0.821803 0.900977 0.471436
v 0.850158 -0.249488 -0.491616
v -0.799462 -0.433589 -0.416708
v 0.652850 1.044826 0.052689
v -0.996771 0.860725 0.127596
v 0.029160 -0.255865 0.923144
v -0.656604 -0.472445 -0.439958
v 0.917159 0.207198 0.406119
v 0.231395 -0.009382 -0.956983
v -0.291639 -0.410451 1.021455
v 0.761694 -0.347776 -0.410922
v -0.642181 1.009548 0.820138
v 0.411152 1.072224 -0.612239
vt 1.000000 0.000000
vt 0.000000 1.000000
vt 0.000000 0.000000
vt 1.000000 0.000000
vt 0.000000 1.000000
vt 0.000000 0.000000
vt 1.000000 0.000000
vt 0.000000 1.000000
vt 0.000000 0.000000
vt 0.000000 0.000000
vt 1.000000 1.000000
vt 0.000000 1.000000
vt 1.000000 0.000000
vt 0.000000 1.000000
vt 0.000000 0.000000
vt 1.000000 1.000000
vt 1.000000 1.000000
vt 1.000000 1.000000
vt 1.000000 0.000000
vt 1.000000 1.000000
vn 0.9588 0.2840 0.0000
vn -0.5944 -0.6830 -0.4244
vn -0.0838 0.3754 -0.9231
vn 0.4279 -0.9010 -0.0721
vn 0.7696 0.2719 0.5778
usemtl bushflower
s 1
f 2/1/1 3/2/1 1/3/1
f 6/4/2 7/5/2 5/6/2
f 10/7/3 11/8/3 9/9/3
f 13/10/4 16/11/4 15/12/4
f 18/13/5 19/14/5 17/15/5
f 2/1/1 4/16/1 3/2/1
f 6/4/2 8/17/2 7/5/2
f 10/7/3 12/18/3 11/8/3
f 13/10/4 14/19/4 16/11/4
f 18/13/5 20/20/5 19/14/5
