# Blender v2.91.2 OBJ File: ''
# www.blender.org
mtllib Cactus2.mtl
o Cube.001_0.001
v 0.325283 1.455270 -0.723670
v -0.003863 1.335313 -0.597550
v 0.000000 1.723730 -0.410955
v -0.723670 1.455270 -0.325283
v -0.605275 1.335313 0.003863
v -0.410955 1.723730 0.000000
v -0.325283 1.455270 0.723670
v -0.205474 1.723730 0.205474
v -0.494915 1.224952 0.494915
v -0.494915 1.224952 0.494915
v -0.205474 1.723730 0.205474
v -0.723670 1.455270 0.325283
v -0.605275 1.335313 0.003863
v -0.723670 1.455270 0.325283
v -0.410955 1.723730 0.000000
v -0.205474 1.723730 -0.205474
v -0.325283 1.455270 -0.723670
v -0.494915 1.224953 -0.487190
v -0.494915 1.224953 -0.487190
v -0.723670 1.455270 -0.325283
v -0.205474 1.723730 -0.205474
v -0.003863 1.335313 -0.597550
v -0.325283 1.455270 -0.723670
v 0.000000 1.723730 -0.410955
v 0.205474 1.723730 -0.205474
v 0.723670 1.455270 -0.325283
v 0.487190 1.224953 -0.487190
v -0.003863 1.335313 0.605275
v 0.000000 1.723730 0.410955
v -0.325283 1.455270 0.723670
v -0.003863 1.335313 0.605275
v 0.325283 1.455270 0.723670
v 0.000000 1.723730 0.410955
v 0.205474 1.723730 0.205474
v 0.325283 1.455270 0.723670
v 0.487190 1.224952 0.494915
v 0.487190 1.224952 0.494915
v 0.723670 1.455270 0.325283
v 0.205474 1.723730 0.205474
v 0.597550 1.335313 0.003863
v 0.410955 1.723730 0.000000
v 0.723670 1.455270 0.325283
v 0.597550 1.335313 0.003863
v 0.723670 1.455270 -0.325283
v 0.410955 1.723730 0.000000
v -0.205474 1.723730 0.205474
v -0.325283 1.455270 0.723670
v 0.000000 1.723730 0.410955
v -0.410955 1.723730 0.000000
v -0.723670 1.455270 0.325283
v -0.205474 1.723730 -0.205474
v -0.723670 1.455270 -0.325283
v -0.410955 1.723730 0.000000
v 0.000000 1.723730 -0.410955
v -0.325283 1.455270 -0.723670
v 0.000000 1.723730 -0.410955
v 0.205474 1.723730 -0.205474
v 0.325283 1.455270 -0.723670
v 0.410955 1.723730 0.000000
v 0.723670 1.455270 -0.325283
v 0.205474 1.723730 0.205474
v 0.723670 1.455270 0.325283
v 0.410955 1.723730 0.000000
v 0.000000 1.723730 0.410955
v 0.325283 1.455270 0.723670
v -0.410955 1.723730 0.000000
v -0.205474 1.723730 0.205474
v 0.000000 1.805471 0.000000
v 0.000000 1.723730 0.410955
v -0.410955 1.723730 0.000000
v 0.000000 1.805471 0.000000
v -0.205474 1.723730 -0.205474
v 0.000000 1.723730 -0.410955
v 0.000000 1.805471 0.000000
v 0.205474 1.723730 -0.205474
v 0.000000 1.723730 -0.410955
v 0.410955 1.723730 0.000000
v 0.000000 1.723730 0.410955
v 0.205474 1.723730 0.205474
v 0.000000 1.805471 0.000000
v 0.410955 1.723730 0.000000
v 0.487190 1.224953 -0.487190
v 0.325283 1.455270 -0.723670
v 0.205474 1.723730 -0.205474
v -0.921884 1.126497 -0.388740
v -0.723670 1.455270 -0.325283
v -0.494915 1.224953 -0.487190
v -0.577834 0.991895 -0.570096
v 0.388746 1.126509 -0.921872
v 0.325283 1.455270 -0.723670
v 0.487190 1.224953 -0.487190
v 0.577877 1.057336 -0.574926
v 0.921884 1.126497 0.388740
v 0.723670 1.455270 0.325283
v 0.487190 1.224952 0.494915
v 0.570102 0.991895 0.577821
v -0.388746 1.126509 0.921872
v -0.325283 1.455270 0.723670
v -0.494915 1.224952 0.494915
v -0.577834 0.991895 0.577821
v 0.366370 0.003807 0.361107
v 0.713384 0.077587 0.315549
v 0.487190 0.242848 0.494915
v 0.315840 0.074375 0.713329
v -0.366370 0.003807 0.361107
v 0.000000 0.032649 0.380444
v -0.003863 0.234812 0.605275
v -0.315840 0.074375 0.713329
v -0.366370 0.003807 -0.361107
v 0.000000 0.032649 -0.380445
v 0.000000 0.092299 0.000000
v -0.380953 0.035191 0.000000
v 0.366370 0.003807 -0.361107
v 0.713384 0.077587 -0.315549
v 0.597550 0.239469 0.003863
v 0.380953 0.035191 0.000000
v -0.388573 0.358732 0.920117
v -0.410955 0.730205 0.992137
v -0.605275 0.733900 0.605275
v -0.586154 0.472198 0.586024
v 0.388573 0.358732 0.920117
v 0.410955 0.730205 0.992137
v -0.003863 0.733900 0.854391
v -0.003863 0.455731 0.787183
v 0.388746 1.126509 0.921872
v 0.325283 1.455270 0.723670
v -0.003863 1.335313 0.605275
v -0.003863 1.059822 0.790705
v 0.919528 0.360524 0.388213
v 0.992074 0.730174 0.410930
v 0.597550 0.733900 0.605275
v 0.578423 0.472198 0.586024
v 0.919528 0.360524 -0.388213
v 0.992074 0.730174 -0.410930
v 0.846660 0.733900 0.003863
v 0.778584 0.458230 0.003863
v 0.921884 1.126497 -0.388740
v 0.723670 1.455270 -0.325283
v 0.597550 1.335313 0.003863
v 0.783023 1.059840 0.003863
v 0.388573 0.358732 -0.920117
v 0.410955 0.730205 -0.992136
v 0.597550 0.733900 -0.597550
v 0.578423 0.472198 -0.578299
v -0.388573 0.358732 -0.920117
v -0.410955 0.730205 -0.992136
v -0.003863 0.733900 -0.846660
v -0.003863 0.455731 -0.779458
v -0.388746 1.126509 -0.921872
v -0.325283 1.455270 -0.723670
v -0.003863 1.335313 -0.597550
v -0.003863 1.059822 -0.782973
v -0.919528 0.360524 -0.388213
v -0.992074 0.730174 -0.410930
v -0.605275 0.733900 -0.597550
v -0.586154 0.472198 -0.578299
v -0.919528 0.360524 0.388213
v -0.992074 0.730174 0.410930
v -0.854391 0.733900 0.003863
v -0.786315 0.458230 0.003863
v -0.921884 1.126497 0.388740
v -0.723670 1.455270 0.325283
v -0.605275 1.335313 0.003863
v -0.790754 1.059840 0.003863
v -0.992074 0.730174 0.410930
v -0.921884 1.126497 0.388740
v -0.790754 1.059840 0.003863
v -0.854391 0.733900 0.003863
v -0.605275 0.733900 0.605275
v -0.577834 0.991895 0.577821
v -0.921884 1.126497 0.388740
v -0.992074 0.730174 0.410930
v -0.577834 0.991895 0.577821
v -0.494915 1.224952 0.494915
v -0.723670 1.455270 0.325283
v -0.921884 1.126497 0.388740
v -0.713384 0.077587 0.315549
v -0.919528 0.360524 0.388213
v -0.786315 0.458230 0.003863
v -0.605275 0.239469 0.003863
v -0.494915 0.242848 0.494915
v -0.586154 0.472198 0.586024
v -0.919528 0.360524 0.388213
v -0.713384 0.077587 0.315549
v -0.586154 0.472198 0.586024
v -0.605275 0.733900 0.605275
v -0.992074 0.730174 0.410930
v -0.919528 0.360524 0.388213
v -0.713384 0.077587 -0.315549
v -0.919528 0.360524 -0.388213
v -0.586154 0.472198 -0.578299
v -0.494915 0.242848 -0.487190
v -0.605275 0.239469 0.003863
v -0.786315 0.458230 0.003863
v -0.919528 0.360524 -0.388213
v -0.713384 0.077587 -0.315549
v -0.786315 0.458230 0.003863
v -0.854391 0.733900 0.003863
v -0.992074 0.730174 -0.410930
v -0.919528 0.360524 -0.388213
v -0.410955 0.730205 -0.992136
v -0.388746 1.126509 -0.921872
v -0.003863 1.059822 -0.782973
v -0.003863 0.733900 -0.846660
v -0.605275 0.733900 -0.597550
v -0.577834 0.991895 -0.570096
v -0.388746 1.126509 -0.921872
v -0.410955 0.730205 -0.992136
v -0.577834 0.991895 -0.570096
v -0.494915 1.224953 -0.487190
v -0.325283 1.455270 -0.723670
v -0.388746 1.126509 -0.921872
v -0.315840 0.074375 -0.713329
v -0.388573 0.358732 -0.920117
v -0.003863 0.455731 -0.779458
v -0.003863 0.234813 -0.597550
v -0.494915 0.242848 -0.487190
v -0.586154 0.472198 -0.578299
v -0.388573 0.358732 -0.920117
v -0.315840 0.074375 -0.713329
v -0.586154 0.472198 -0.578299
v -0.605275 0.733900 -0.597550
v -0.410955 0.730205 -0.992136
v -0.388573 0.358732 -0.920117
v 0.315840 0.074375 -0.713329
v 0.388573 0.358732 -0.920117
v 0.578423 0.472198 -0.578299
v 0.487190 0.242848 -0.487190
v -0.003863 0.234813 -0.597550
v -0.003863 0.455731 -0.779458
v 0.388573 0.358732 -0.920117
v 0.315840 0.074375 -0.713329
v -0.003863 0.455731 -0.779458
v -0.003863 0.733900 -0.846660
v 0.410955 0.730205 -0.992136
v 0.388573 0.358732 -0.920117
v 0.992074 0.730174 -0.410930
v 0.921884 1.126497 -0.388740
v 0.783023 1.059840 0.003863
v 0.846660 0.733900 0.003863
v 0.597550 0.733900 -0.597550
v 0.577877 1.057336 -0.574926
v 0.921884 1.126497 -0.388740
v 0.992074 0.730174 -0.410930
v 0.577877 1.057336 -0.574926
v 0.487190 1.224953 -0.487190
v 0.723670 1.455270 -0.325283
v 0.921884 1.126497 -0.388740
v 0.713384 0.077587 -0.315549
v 0.919528 0.360524 -0.388213
v 0.778584 0.458230 0.003863
v 0.597550 0.239469 0.003863
v 0.487190 0.242848 -0.487190
v 0.578423 0.472198 -0.578299
v 0.919528 0.360524 -0.388213
v 0.713384 0.077587 -0.315549
v 0.578423 0.472198 -0.578299
v 0.597550 0.733900 -0.597550
v 0.992074 0.730174 -0.410930
v 0.919528 0.360524 -0.388213
v 0.713384 0.077587 0.315549
v 0.919528 0.360524 0.388213
v 0.578423 0.472198 0.586024
v 0.487190 0.242848 0.494915
v 0.597550 0.239469 0.003863
v 0.778584 0.458230 0.003863
v 0.919528 0.360524 0.388213
v 0.713384 0.077587 0.315549
v 0.778584 0.458230 0.003863
v 0.846660 0.733900 0.003863
v 0.992074 0.730174 0.410930
v 0.919528 0.360524 0.388213
v 0.410955 0.730205 0.992137
v 0.388746 1.126509 0.921872
v -0.003863 1.059822 0.790705
v -0.003863 0.733900 0.854391
v 0.597550 0.733900 0.605275
v 0.570102 0.991895 0.577821
v 0.388746 1.126509 0.921872
v 0.410955 0.730205 0.992137
v 0.570102 0.991895 0.577821
v 0.487190 1.224952 0.494915
v 0.325283 1.455270 0.723670
v 0.388746 1.126509 0.921872
v 0.315840 0.074375 0.713329
v 0.388573 0.358732 0.920117
v -0.003863 0.455731 0.787183
v -0.003863 0.234812 0.605275
v 0.487190 0.242848 0.494915
v 0.578423 0.472198 0.586024
v 0.388573 0.358732 0.920117
v 0.315840 0.074375 0.713329
v 0.578423 0.472198 0.586024
v 0.597550 0.733900 0.605275
v 0.410955 0.730205 0.992137
v 0.388573 0.358732 0.920117
v -0.586154 0.472198 0.586024
v -0.494915 0.242848 0.494915
v -0.315840 0.074375 0.713329
v -0.388573 0.358732 0.920117
v -0.003863 0.234812 0.605275
v -0.003863 0.455731 0.787183
v -0.388573 0.358732 0.920117
v -0.315840 0.074375 0.713329
v -0.003863 0.455731 0.787183
v -0.003863 0.733900 0.854391
v -0.410955 0.730205 0.992137
v -0.388573 0.358732 0.920117
v 0.000000 0.032649 -0.380445
v 0.366370 0.003807 -0.361107
v 0.380953 0.035191 0.000000
v 0.000000 0.092299 0.000000
v -0.003863 0.234813 -0.597550
v 0.315840 0.074375 -0.713329
v 0.366370 0.003807 -0.361107
v 0.000000 0.032649 -0.380445
v 0.315840 0.074375 -0.713329
v 0.487190 0.242848 -0.487190
v 0.713384 0.077587 -0.315549
v 0.366370 0.003807 -0.361107
v -0.713384 0.077587 -0.315549
v -0.366370 0.003807 -0.361107
v -0.380953 0.035191 0.000000
v -0.605275 0.239469 0.003863
v -0.494915 0.242848 -0.487190
v -0.315840 0.074375 -0.713329
v -0.366370 0.003807 -0.361107
v -0.713384 0.077587 -0.315549
v -0.315840 0.074375 -0.713329
v -0.003863 0.234813 -0.597550
v 0.000000 0.032649 -0.380445
v -0.366370 0.003807 -0.361107
v -0.315840 0.074375 0.713329
v -0.494915 0.242848 0.494915
v -0.713384 0.077587 0.315549
v -0.366370 0.003807 0.361107
v -0.605275 0.239469 0.003863
v -0.380953 0.035191 0.000000
v -0.366370 0.003807 0.361107
v -0.713384 0.077587 0.315549
v -0.380953 0.035191 0.000000
v 0.000000 0.092299 0.000000
v 0.000000 0.032649 0.380444
v -0.366370 0.003807 0.361107
v 0.000000 0.032649 0.380444
v 0.366370 0.003807 0.361107
v 0.315840 0.074375 0.713329
v -0.003863 0.234812 0.605275
v 0.000000 0.092299 0.000000
v 0.380953 0.035191 0.000000
v 0.366370 0.003807 0.361107
v 0.000000 0.032649 0.380444
v 0.380953 0.035191 0.000000
v 0.597550 0.239469 0.003863
v 0.713384 0.077587 0.315549
v 0.366370 0.003807 0.361107
v -0.410955 0.730205 0.992137
v -0.388746 1.126509 0.921872
v -0.577834 0.991895 0.577821
v -0.605275 0.733900 0.605275
v -0.003863 0.733900 0.854391
v -0.003863 1.059822 0.790705
v -0.388746 1.126509 0.921872
v -0.410955 0.730205 0.992137
v -0.003863 1.059822 0.790705
v -0.003863 1.335313 0.605275
v -0.325283 1.455270 0.723670
v -0.388746 1.126509 0.921872
v 0.992074 0.730174 0.410930
v 0.921884 1.126497 0.388740
v 0.570102 0.991895 0.577821
v 0.597550 0.733900 0.605275
v 0.846660 0.733900 0.003863
v 0.783023 1.059840 0.003863
v 0.921884 1.126497 0.388740
v 0.992074 0.730174 0.410930
v 0.783023 1.059840 0.003863
v 0.597550 1.335313 0.003863
v 0.723670 1.455270 0.325283
v 0.921884 1.126497 0.388740
v 0.410955 0.730205 -0.992136
v 0.388746 1.126509 -0.921872
v 0.577877 1.057336 -0.574926
v 0.597550 0.733900 -0.597550
v -0.003863 0.733900 -0.846660
v -0.003863 1.059822 -0.782973
v 0.388746 1.126509 -0.921872
v 0.410955 0.730205 -0.992136
v -0.003863 1.059822 -0.782973
v -0.003863 1.335313 -0.597550
v 0.325283 1.455270 -0.723670
v 0.388746 1.126509 -0.921872
v -0.992074 0.730174 -0.410930
v -0.921884 1.126497 -0.388740
v -0.577834 0.991895 -0.570096
v -0.605275 0.733900 -0.597550
v -0.854391 0.733900 0.003863
v -0.790754 1.059840 0.003863
v -0.921884 1.126497 -0.388740
v -0.992074 0.730174 -0.410930
v -0.790754 1.059840 0.003863
v -0.605275 1.335313 0.003863
v -0.723670 1.455270 -0.325283
v -0.921884 1.126497 -0.388740
vn -0.4500 0.3903 -0.8032
vn -0.8028 0.4060 0.4367
vn -0.8401 0.5359 0.0834
vn -0.0834 0.5359 0.8401
vn -0.8031 0.3973 -0.4441
vn -0.8410 0.5347 -0.0825
vn -0.0746 0.5229 -0.8491
vn 0.4575 0.3813 -0.8033
vn 0.0738 0.5217 -0.8499
vn 0.4441 0.3973 0.8031
vn -0.4367 0.4060 0.8028
vn 0.8491 0.5229 0.0746
vn 0.0825 0.5347 0.8410
vn 0.8033 0.3813 -0.4575
vn 0.8032 0.3903 0.4500
vn -0.3616 0.8594 0.3616
vn -0.3616 0.8594 -0.3616
vn 0.3616 0.8594 -0.3616
vn 0.3616 0.8594 0.3616
vn -0.1915 0.9626 0.1915
vn -0.1915 0.9626 -0.1915
vn 0.1915 0.9626 -0.1915
vn 0.1915 0.9626 0.1915
vn 0.8499 0.5217 -0.0738
vn -0.2894 0.3743 -0.8810
vn 0.8532 0.4327 -0.2912
vn 0.2996 0.3781 0.8760
vn 0.2996 0.3781 0.8759
vn -0.8733 0.3800 0.3048
vn -0.8733 0.3801 0.3048
vn 0.5675 -0.6015 0.5622
vn 0.5675 -0.6015 0.5623
vn 0.2944 -0.8730 0.3888
vn 0.1163 -0.9855 0.1235
vn 0.1165 -0.9855 0.1233
vn 0.3997 -0.8644 0.3050
vn 0.3997 -0.8644 0.3049
vn -0.8801 -0.1238 0.4583
vn -0.3332 -0.1866 0.9242
vn -0.3942 0.4627 0.7940
vn 0.4515 -0.1243 0.8836
vn 0.9180 -0.1877 0.3494
vn 0.9180 -0.1878 0.3494
vn 0.7894 0.4583 0.4084
vn 0.7894 0.4584 0.4084
vn 0.7894 0.4584 0.4083
vn 0.8915 -0.1214 -0.4364
vn 0.3547 -0.1842 -0.9167
vn 0.4158 0.4559 -0.7869
vn 0.4158 0.4560 -0.7869
vn -0.4443 -0.1235 -0.8873
vn -0.9214 -0.1888 -0.3396
vn -0.9214 -0.1889 -0.3396
vn -0.7917 0.4606 -0.4014
vn -0.9304 0.1622 -0.3288
vn -0.9304 0.1623 -0.3287
vn -0.4416 0.1332 0.8873
vn -0.4417 0.1332 0.8872
vn -0.3048 0.3800 0.8733
vn -0.3049 0.3800 0.8733
vn -0.7390 -0.5059 -0.4449
vn -0.3339 -0.4576 0.8241
vn -0.3339 -0.4573 0.8242
vn -0.3339 -0.4575 0.8241
vn -0.3339 -0.4574 0.8242
vn -0.4589 -0.1251 0.8796
vn -0.3194 -0.4517 -0.8330
vn -0.7415 -0.5090 0.4372
vn -0.7415 -0.5089 0.4372
vn -0.9234 -0.1895 0.3338
vn 0.3449 0.1609 -0.9248
vn 0.3448 0.1609 -0.9248
vn -0.8909 0.1325 -0.4344
vn -0.8910 0.1327 -0.4343
vn -0.8759 0.3781 -0.2996
vn -0.8760 0.3781 -0.2995
vn 0.4558 -0.5005 -0.7360
vn 0.4559 -0.5005 -0.7360
vn -0.8299 -0.4534 -0.3252
vn -0.8298 -0.4535 -0.3252
vn -0.8301 -0.4530 -0.3252
vn -0.8298 -0.4534 -0.3252
vn -0.8841 -0.1230 -0.4509
vn -0.8841 -0.1229 -0.4509
vn 0.8383 -0.4478 -0.3109
vn 0.8384 -0.4478 -0.3108
vn 0.8383 -0.4479 -0.3108
vn -0.4481 -0.5037 -0.7386
vn -0.3487 -0.1849 -0.9188
vn 0.9269 0.1613 0.3389
vn 0.4401 0.1104 -0.8911
vn 0.2909 0.4297 -0.8548
vn 0.7373 -0.5039 0.4500
vn 0.7373 -0.5039 0.4499
vn 0.3138 -0.4496 -0.8363
vn 0.3138 -0.4495 -0.8363
vn 0.3138 -0.4494 -0.8364
vn 0.4370 -0.1227 -0.8910
vn 0.3282 -0.4551 0.8277
vn 0.3281 -0.4551 0.8278
vn 0.7347 -0.5007 -0.4577
vn 0.7347 -0.5007 -0.4578
vn 0.9158 -0.1871 -0.3553
vn -0.3232 0.1630 0.9322
vn -0.3232 0.1629 0.9322
vn 0.8947 0.1317 0.4268
vn 0.8947 0.1316 0.4268
vn 0.8947 0.1316 0.4269
vn 0.8810 0.3744 0.2894
vn 0.8809 0.3744 0.2895
vn 0.8810 0.3743 0.2895
vn -0.4353 -0.5088 0.7427
vn -0.4353 -0.5087 0.7428
vn -0.4352 -0.5087 0.7428
vn 0.8351 -0.4501 0.3163
vn 0.8351 -0.4500 0.3163
vn 0.8352 -0.4498 0.3163
vn 0.8878 -0.1222 0.4437
vn -0.8264 -0.4556 0.3308
vn -0.8264 -0.4556 0.3309
vn 0.4429 -0.5057 0.7403
vn 0.4430 -0.5057 0.7403
vn 0.3389 -0.1860 0.9223
vn 0.3389 -0.1859 0.9223
vn -0.1166 -0.9855 0.1234
vn -0.1165 -0.9855 0.1233
vn -0.1166 -0.9855 0.1233
vn -0.2954 -0.8723 -0.3896
vn -0.2954 -0.8723 -0.3897
vn -0.2955 -0.8723 -0.3896
vn 0.5736 -0.5897 -0.5685
vn 0.5736 -0.5898 -0.5685
vn -0.3962 -0.8675 0.3008
vn -0.5674 -0.6016 -0.5622
vn -0.5675 -0.6016 -0.5621
vn -0.5674 -0.6017 -0.5622
vn 0.2985 -0.8700 -0.3923
vn 0.2986 -0.8700 -0.3923
vn -0.5613 -0.6131 0.5560
vn -0.3989 -0.8652 -0.3040
vn 0.1165 -0.9855 -0.1232
vn 0.1165 -0.9855 -0.1233
vn 0.1166 -0.9855 -0.1234
vn -0.2914 -0.8752 0.3862
vn -0.1165 -0.9855 -0.1233
vn -0.1164 -0.9855 -0.1234
vn 0.4025 -0.8620 -0.3082
vn -0.8874 0.1330 0.4415
vn -0.8873 0.1333 0.4415
vn -0.8873 0.1333 0.4416
vn 0.3289 0.1624 0.9303
vn 0.3288 0.1624 0.9303
vn 0.3288 0.1624 0.9304
vn 0.4014 0.4605 0.7917
vn 0.4017 0.4607 0.7915
vn 0.4345 0.1324 0.8909
vn 0.9248 0.1608 -0.3448
vn 0.9248 0.1607 -0.3447
vn 0.7869 0.4560 -0.4157
vn 0.8905 0.1089 -0.4417
vn 0.8906 0.1088 -0.4416
vn -0.3390 0.1615 -0.9268
vn -0.4084 0.4583 -0.7894
vn -0.4083 0.4582 -0.7895
vn -0.4268 0.1314 -0.8947
vn -0.4269 0.1316 -0.8947
vn -0.9323 0.1628 0.3231
vn -0.9322 0.1629 0.3231
vn -0.7940 0.4628 0.3942
vn -0.7939 0.4629 0.3942
usemtl Material.001
s off
f 1//1 2//1 3//1
f 4//2 5//2 6//2
f 7//3 8//3 9//3
f 10//4 11//4 12//4
f 13//5 14//5 15//5
f 16//6 17//6 18//6
f 19//7 20//7 21//7
f 22//8 23//8 24//8
f 25//9 26//9 27//9
f 28//10 29//10 30//10
f 31//11 32//11 33//11
f 34//12 35//12 36//12
f 37//13 38//13 39//13
f 40//14 41//14 42//14
f 43//15 44//15 45//15
f 46//16 47//16 48//16
f 46//16 49//16 50//16
f 51//17 52//17 53//17
f 51//17 54//17 55//17
f 56//18 57//18 58//18
f 57//18 59//18 60//18
f 61//19 62//19 63//19
f 64//19 65//19 61//19
f 66//20 67//20 68//20
f 69//20 68//20 67//20
f 70//21 71//21 72//21
f 71//21 73//21 72//21
f 74//22 75//22 76//22
f 77//22 75//22 74//22
f 78//23 79//23 80//23
f 81//23 80//23 79//23
s 1
f 82//24 83//24 84//24
f 85//25 86//25 87//25
f 85//25 87//25 88//25
f 89//26 90//26 91//26
f 89//26 91//26 92//26
f 93//27 94//28 95//28
f 93//27 95//28 96//28
f 97//29 98//29 99//29
f 97//29 99//29 100//30
f 101//31 102//32 103//31
f 101//31 103//31 104//31
f 105//33 106//33 107//33
f 105//33 107//33 108//33
f 109//34 110//35 111//35
f 109//34 111//35 112//35
f 113//36 114//36 115//36
f 113//36 115//36 116//37
f 117//38 118//38 119//38
f 117//38 119//38 120//38
f 121//39 122//39 123//39
f 121//39 123//39 124//39
f 125//40 126//40 127//40
f 125//40 127//40 128//40
f 129//41 130//41 131//41
f 129//41 131//41 132//41
f 133//42 134//43 135//42
f 133//42 135//42 136//42
f 137//44 138//45 139//46
f 137//44 139//46 140//46
f 141//47 142//47 143//47
f 141//47 143//47 144//47
f 145//48 146//48 147//48
f 145//48 147//48 148//48
f 149//49 150//49 151//50
f 149//49 151//50 152//49
f 153//51 154//51 155//51
f 153//51 155//51 156//51
f 157//52 158//52 159//52
f 157//52 159//52 160//53
f 161//54 162//54 163//54
f 161//54 163//54 164//54
f 165//55 166//56 167//56
f 165//55 167//56 168//56
f 169//57 170//57 171//58
f 169//57 171//58 172//57
f 173//59 174//59 175//60
f 173//59 175//60 176//59
f 177//61 178//61 179//61
f 177//61 179//61 180//61
f 181//62 182//63 183//64
f 181//62 183//64 184//65
f 185//66 186//66 187//66
f 185//66 187//66 188//66
f 189//67 190//67 191//67
f 189//67 191//67 192//67
f 193//68 194//69 195//69
f 193//68 195//69 196//69
f 197//70 198//70 199//70
f 197//70 199//70 200//70
f 201//71 202//72 203//72
f 201//71 203//72 204//71
f 205//73 206//73 207//74
f 205//73 207//74 208//73
f 209//75 210//75 211//76
f 209//75 211//76 212//75
f 213//77 214//78 215//78
f 213//77 215//78 216//77
f 217//79 218//80 219//81
f 217//79 219//81 220//82
f 221//83 222//83 223//84
f 221//83 223//84 224//83
f 225//85 226//86 227//87
f 225//85 227//87 228//86
f 229//88 230//88 231//88
f 229//88 231//88 232//88
f 233//89 234//89 235//89
f 233//89 235//89 236//89
f 237//90 238//90 239//90
f 237//90 239//90 240//90
f 241//91 242//91 243//91
f 241//91 243//91 244//91
f 245//92 246//92 247//92
f 245//92 247//92 248//92
f 249//93 250//94 251//94
f 249//93 251//94 252//94
f 253//95 254//96 255//97
f 253//95 255//97 256//95
f 257//98 258//98 259//98
f 257//98 259//98 260//98
f 261//99 262//99 263//99
f 261//99 263//99 264//100
f 265//101 266//102 267//102
f 265//101 267//102 268//102
f 269//103 270//103 271//103
f 269//103 271//103 272//103
f 273//104 274//105 275//105
f 273//104 275//105 276//104
f 277//106 278//107 279//108
f 277//106 279//108 280//107
f 281//109 282//109 283//110
f 281//109 283//110 284//111
f 285//112 286//113 287//113
f 285//112 287//113 288//114
f 289//115 290//116 291//117
f 289//115 291//117 292//116
f 293//118 294//118 295//118
f 293//118 295//118 296//118
f 297//119 298//120 299//120
f 297//119 299//120 300//120
f 301//121 302//121 303//122
f 301//121 303//122 304//121
f 305//123 306//123 307//124
f 305//123 307//124 308//123
f 309//125 310//126 311//127
f 309//125 311//127 312//126
f 313//128 314//129 315//130
f 313//128 315//130 316//130
f 317//131 318//132 319//132
f 317//131 319//132 320//131
f 321//133 322//133 323//133
f 321//133 323//133 324//133
f 325//134 326//134 327//135
f 325//134 327//135 328//136
f 329//137 330//138 331//138
f 329//137 331//138 332//137
f 333//139 334//139 335//139
f 333//139 335//139 336//139
f 337//140 338//140 339//140
f 337//140 339//140 340//140
f 341//141 342//142 343//143
f 341//141 343//143 344//142
f 345//144 346//144 347//144
f 345//144 347//144 348//144
f 349//145 350//145 351//146
f 349//145 351//146 352//145
f 353//147 354//147 355//147
f 353//147 355//147 356//147
f 357//148 358//149 359//150
f 357//148 359//150 360//150
f 361//151 362//152 363//153
f 361//151 363//153 364//152
f 365//154 366//154 367//155
f 365//154 367//155 368//154
f 369//156 370//156 371//156
f 369//156 371//156 372//156
f 373//157 374//157 375//158
f 373//157 375//158 376//157
f 377//159 378//159 379//159
f 377//159 379//159 380//159
f 381//160 382//161 383//161
f 381//160 383//161 384//161
f 385//162 386//162 387//162
f 385//162 387//162 388//162
f 389//163 390//163 391//164
f 389//163 391//164 392//163
f 393//165 394//166 395//166
f 393//165 395//166 396//166
f 397//167 398//167 399//168
f 397//167 399//168 400//167
f 401//169 402//169 403//170
f 401//169 403//170 404//169
