# Blender v2.91.2 OBJ File: ''
# www.blender.org
mtllib Crabapple.mtl
o Crabapple
v -1.019338 -0.018522 -0.000000
v 0.988562 -0.018522 -0.000000
v -1.019338 1.989379 0.000000
v 0.988562 1.989379 0.000000
v 0.084784 -0.020673 -1.060803
v 0.004461 -0.020673 0.945490
v 0.084784 2.220464 -1.060803
v 0.004462 2.220464 0.945490
vt 1.000000 0.000000
vt 0.000000 1.000000
vt 0.000000 0.000000
vt 1.000000 0.000000
vt 0.000000 1.000000
vt 0.000000 0.000000
vt 1.000000 1.000000
vt 1.000000 1.000000
vn 0.0000 -0.0000 1.0000
vn -0.9992 0.0000 -0.0400
usemtl Crabapple
s off
f 2/1/1 3/2/1 1/3/1
f 6/4/2 7/5/2 5/6/2
f 2/1/1 4/7/1 3/2/1
f 6/4/2 8/8/2 7/5/2
