# Blender v2.91.2 OBJ File: ''
# www.blender.org
mtllib MushBig.mtl
o MushBig_bushbig.006
v -0.382677 0.198274 0.190079
v 0.517841 -0.189100 0.073921
v -0.157841 0.720946 0.190079
v 0.742678 0.333573 0.073921
v 0.308654 0.693487 0.348301
v 0.390997 0.018670 0.480167
v 0.390397 0.656553 -0.271786
v 0.472740 -0.018264 -0.139921
v 0.128823 0.091068 1.196643
v 0.558270 -0.124062 0.537859
v -0.178885 0.593982 0.847333
v 0.250562 0.378852 0.188549
v -0.482093 0.312716 0.110666
v 0.206920 0.010909 -0.477765
v -0.097204 0.227604 0.747346
v 0.591810 -0.074203 0.158914
v 0.269846 -0.109058 1.002025
v -0.057214 0.031632 -0.156888
v 0.514022 0.458571 1.002025
v 0.186961 0.599261 -0.156888
v 0.415874 -0.036877 0.012952
v 0.028109 -0.115207 1.067387
v 0.563539 0.547407 0.202441
v 0.175774 0.469076 1.256875
v 0.459622 -0.154215 0.591341
v 0.429085 0.268492 -0.218124
v -0.040402 0.263314 0.756781
v -0.070939 0.686021 -0.052684
v 0.277872 -0.034668 1.183729
v -0.318842 0.216136 0.400389
v 0.650147 -0.107434 0.581202
v 0.053434 0.143371 -0.202137
v -0.105950 -0.168595 1.024072
v -0.317895 0.429009 0.361518
v 0.367814 0.059476 1.078233
v 0.155869 0.657080 0.415679
v 0.047990 0.198274 0.179448
v -0.383102 -0.189100 -0.619668
v -0.032566 0.720946 -0.030461
v -0.463658 0.333573 -0.829577
v 0.275768 0.637475 -0.654024
v -0.037137 0.086901 0.241339
v -0.301245 0.588321 -0.897663
v -0.614150 0.037747 -0.002300
v -0.445150 0.091068 -1.080511
v -0.862444 -0.124062 -0.413962
v -0.131087 0.593982 -0.736902
v -0.548381 0.378852 -0.070353
v 0.009468 0.312716 0.300717
v -0.786763 0.010909 -0.131726
v 0.465979 0.227604 -0.286734
v -0.330253 -0.074203 -0.719177
v 0.572241 -0.109058 -0.720665
v -0.392553 0.031632 -0.000094
v 0.484756 0.458571 -0.948629
v -0.480038 0.599261 -0.228058
v -0.797967 -0.110607 -0.644943
v -0.336061 0.048524 0.331508
v -0.466319 0.383676 -0.789223
v -0.004413 0.542807 0.187227
v 0.120827 -0.154215 -0.750699
v -0.623958 0.268491 -0.432168
v 0.454436 0.263314 -0.343146
v -0.290349 0.686021 -0.024615
v 0.739006 -0.034668 -0.793260
v 0.221466 0.216137 0.044500
v 0.043099 -0.107434 -0.924943
v -0.474441 0.143371 -0.087183
v 0.727467 -0.168595 -0.377717
v 0.184836 0.429009 0.057542
v 0.608289 0.059476 -0.839433
v 0.065658 0.657080 -0.404174
v -0.476132 0.570644 -0.060053
v 0.241005 0.264438 -0.030978
v -0.300932 0.983798 -0.030195
v 0.416204 0.677593 -0.001120
v -0.075492 0.327708 0.659295
v -0.176444 0.438919 -0.287199
v 0.114776 0.776400 0.691721
v 0.013825 0.887611 -0.254773
v 0.126926 0.292013 0.364480
v 0.210627 0.626148 -0.270335
v -0.284678 0.622056 0.426992
v -0.200977 0.956191 -0.207822
v -0.139131 0.570644 -0.011144
v -0.368928 0.264438 -0.691088
v -0.174027 0.983798 -0.185410
v -0.403824 0.677593 -0.865354
v 0.464329 0.280647 -0.355070
v -0.016307 0.753031 -0.087964
v 0.432778 0.460929 -0.730680
v -0.047859 0.933314 -0.463574
v -0.976054 -0.088946 -0.434526
v -0.506306 0.045284 0.541925
v -0.618475 0.386915 -0.578806
v -0.148729 0.521146 0.397644
v 0.023259 0.195102 1.083277
v -0.586035 0.003492 0.262196
v 0.221214 0.653741 0.809431
v -0.388079 0.462131 -0.011651
vt 0.000000 0.000000
vt 1.000000 1.000000
vt 0.000000 1.000000
vt 0.000000 0.000000
vt 1.000000 1.000000
vt 0.000000 1.000000
vt 0.000000 0.000000
vt 1.000000 1.000000
vt 0.000000 1.000000
vt 0.000000 0.000000
vt 1.000000 1.000000
vt 0.000000 1.000000
vt 1.000000 0.000000
vt 0.000000 1.000000
vt 0.000000 0.000000
vt 1.000000 0.000000
vt 0.000000 1.000000
vt 0.000000 0.000000
vt 1.000000 0.000000
vt 0.000000 1.000000
vt 0.000000 0.000000
vt 1.000000 0.000000
vt 0.000000 1.000000
vt 0.000000 0.000000
vt 1.000000 0.000000
vt 0.000000 1.000000
vt 0.000000 0.000000
vt 0.000000 0.000000
vt 1.000000 1.000000
vt 0.000000 1.000000
vt 0.000000 0.000000
vt 1.000000 1.000000
vt 0.000000 1.000000
vt 0.000000 0.000000
vt 1.000000 1.000000
vt 0.000000 1.000000
vt 0.000000 0.000000
vt 1.000000 1.000000
vt 0.000000 1.000000
vt 0.000000 0.000000
vt 1.000000 1.000000
vt 0.000000 1.000000
vt 1.000000 0.000000
vt 0.000000 1.000000
vt 0.000000 0.000000
vt 1.000000 0.000000
vt 0.000000 1.000000
vt 0.000000 0.000000
vt 1.000000 0.000000
vt 0.000000 1.000000
vt 0.000000 0.000000
vt 1.000000 0.000000
vt 0.000000 1.000000
vt 0.000000 0.000000
vt 0.000000 0.000000
vt 1.000000 1.000000
vt 0.000000 1.000000
vt 1.000000 0.000000
vt 0.000000 1.000000
vt 0.000000 0.000000
vt 1.000000 0.000000
vt 0.000000 1.000000
vt 0.000000 0.000000
vt 0.000000 0.000000
vt 1.000000 1.000000
vt 0.000000 1.000000
vt 1.000000 0.000000
vt 0.000000 1.000000
vt 0.000000 0.000000
vt 1.000000 0.000000
vt 0.000000 1.000000
vt 0.000000 0.000000
vt 1.000000 0.000000
vt 0.000000 1.000000
vt 0.000000 0.000000
vt 1.000000 0.000000
vt 1.000000 0.000000
vt 1.000000 0.000000
vt 1.000000 0.000000
vt 1.000000 1.000000
vt 1.000000 1.000000
vt 1.000000 1.000000
vt 1.000000 1.000000
vt 1.000000 1.000000
vt 1.000000 0.000000
vt 1.000000 0.000000
vt 1.000000 0.000000
vt 1.000000 0.000000
vt 1.000000 0.000000
vt 1.000000 1.000000
vt 1.000000 1.000000
vt 1.000000 1.000000
vt 1.000000 1.000000
vt 1.000000 0.000000
vt 1.000000 1.000000
vt 1.000000 1.000000
vt 1.000000 0.000000
vt 1.000000 1.000000
vt 1.000000 1.000000
vt 1.000000 1.000000
vn 0.1081 -0.0465 0.9931
vn 0.9822 0.1435 0.1209
vn 0.7276 0.6314 0.2681
vn -0.3411 -0.9365 0.0810
vn 0.8781 -0.3777 -0.2937
vn -0.8951 0.3251 -0.3050
vn 0.6672 0.6703 0.3249
vn -0.3036 -0.9500 -0.0729
vn 0.3785 -0.6239 -0.6838
vn 0.8884 -0.0465 -0.4567
vn 0.2586 -0.8606 -0.4388
vn -0.7324 0.6314 -0.2547
vn 0.1978 -0.9365 0.2894
vn -0.5888 -0.3777 -0.7146
vn -0.7632 0.5894 0.2650
vn 0.0642 0.6703 -0.7393
vn 0.0408 -0.9500 0.3096
vn -0.7740 -0.6239 -0.1084
vn -0.0603 -0.0465 0.9971
vn 0.9150 -0.3777 -0.1420
vn 0.6031 0.6703 0.4323
vn 0.9525 -0.0465 -0.3010
vn -0.7448 -0.6239 -0.2369
vn -0.7306 0.6293 0.2650
vn 0.7243 -0.5560 -0.4077
usemtl bushType1
s 1
f 1/1/1 4/2/1 3/3/1
f 5/4/2 8/5/2 7/6/2
f 9/7/3 12/8/3 11/9/3
f 13/10/4 16/11/4 15/12/4
f 18/13/5 19/14/5 17/15/5
f 22/16/6 23/17/6 21/18/6
f 26/19/7 27/20/7 25/21/7
f 30/22/8 31/23/8 29/24/8
f 34/25/9 35/26/9 33/27/9
f 37/28/10 40/29/10 39/30/10
f 41/31/11 44/32/11 43/33/11
f 45/34/12 48/35/12 47/36/12
f 49/37/13 52/38/13 51/39/13
f 53/40/14 56/41/14 55/42/14
f 58/43/15 59/44/15 57/45/15
f 62/46/16 63/47/16 61/48/16
f 66/49/17 67/50/17 65/51/17
f 70/52/18 71/53/18 69/54/18
f 73/55/19 76/56/19 75/57/19
f 78/58/20 79/59/20 77/60/20
f 82/61/21 83/62/21 81/63/21
f 85/64/22 88/65/22 87/66/22
f 90/67/23 91/68/23 89/69/23
f 94/70/24 95/71/24 93/72/24
f 98/73/25 99/74/25 97/75/25
f 1/1/1 2/76/1 4/2/1
f 5/4/2 6/77/2 8/5/2
f 9/7/3 10/78/3 12/8/3
f 13/10/4 14/79/4 16/11/4
f 18/13/5 20/80/5 19/14/5
f 22/16/6 24/81/6 23/17/6
f 26/19/7 28/82/7 27/20/7
f 30/22/8 32/83/8 31/23/8
f 34/25/9 36/84/9 35/26/9
f 37/28/10 38/85/10 40/29/10
f 41/31/11 42/86/11 44/32/11
f 45/34/12 46/87/12 48/35/12
f 49/37/13 50/88/13 52/38/13
f 53/40/14 54/89/14 56/41/14
f 58/43/15 60/90/15 59/44/15
f 62/46/16 64/91/16 63/47/16
f 66/49/17 68/92/17 67/50/17
f 70/52/18 72/93/18 71/53/18
f 73/55/19 74/94/19 76/56/19
f 78/58/20 80/95/20 79/59/20
f 82/61/21 84/96/21 83/62/21
f 85/64/22 86/97/22 88/65/22
f 90/67/23 92/98/23 91/68/23
f 94/70/24 96/99/24 95/71/24
f 98/73/25 100/100/25 99/74/25
