# Blender v2.91.2 OBJ File: ''
# www.blender.org
mtllib PineBillboard.mtl
o PineBillboard_Pine.002
v 0.069872 0.001260 -1.054252
v -0.028783 0.001260 1.080152
v 0.069873 4.172793 -1.054252
v -0.028782 4.172793 1.080152
v -1.060162 0.001147 -0.000000
v 1.076521 0.001147 -0.000000
v -1.060162 3.799695 0.000000
v 1.076521 3.799695 0.000000
vt 1.000000 0.000000
vt 0.000000 1.000000
vt 0.000000 0.000000
vt 1.000000 0.000000
vt 0.000000 1.000000
vt 0.000000 0.000000
vt 1.000000 1.000000
vt 1.000000 1.000000
vn -0.9989 0.0000 -0.0462
vn -0.0000 -0.0000 1.0000
usemtl Pine
s off
f 2/1/1 3/2/1 1/3/1
f 6/4/2 7/5/2 5/6/2
f 2/1/1 4/7/1 3/2/1
f 6/4/2 8/8/2 7/5/2
